<svg
    xmlns="http://www.w3.org/2000/svg"
    xmlns:xlink="http://www.w3.org/1999/xlink"
    width="32"
    height="32"
    viewBox="0 0 32 32"
>
    <g fill="#000000">
        <rect
            width="8"
            height="8"
            x="8"
            y="0"
        />
        <rect
            width="8"
            height="8"
            x="0"
            y="8"
        />
        <rect
            width="4"
            height="4"
            x="0"
            y="0"
        />
        <rect
            width="4"
            height="4"
            x="4"
            y="4"
        />
        <rect
            width="8"
            height="8"
            x="24"
            y="16"
        />
        <rect
            width="8"
            height="8"
            x="16"
            y="24"
        />
        <rect
            width="4"
            height="4"
            x="24"
            y="24"
        />
        <rect
            width="4"
            height="4"
            x="28"
            y="28"
        />
        <rect
            width="4"
            height="4"
            x="16"
            y="16"
        />
        <rect
            width="4"
            height="4"
            x="20"
            y="20"
        />
        <rect
            width="2"
            height="2"
            x="10"
            y="8"
        />
        <rect
            width="2"
            height="2"
            x="8"
            y="10"
        />
        <rect
            width="2"
            height="2"
            x="14"
            y="8"
        />
        <rect
            width="2"
            height="2"
            x="12"
            y="10"
        />
        <rect
            width="2"
            height="2"
            x="8"
            y="14"
        />
        <rect
            width="2"
            height="2"
            x="14"
            y="12"
        />
        <rect
            width="2"
            height="2"
            x="12"
            y="14"
        />
        <rect
            width="2"
            height="2"
            x="10"
            y="12"
        />
        <rect
            width="4"
            height="4"
            x="0"
            y="24"
        />
        <rect
            width="4"
            height="4"
            x="4"
            y="28"
        />
        <rect
            width="2"
            height="2"
            x="4"
            y="26"
        />
        <rect
            width="2"
            height="2"
            x="6"
            y="24"
        />
        <rect
            width="4"
            height="4"
            x="24"
            y="0"
        />
        <rect
            width="4"
            height="4"
            x="28"
            y="4"
        />
        <rect
            width="2"
            height="2"
            x="26"
            y="4"
        />
        <rect
            width="2"
            height="2"
            x="24"
            y="6"
        />
    </g>
</svg>